<?xml version="1.0" encoding="utf-8"?>
<!-- Generator: Adobe Illustrator 16.0.0, SVG Export Plug-In . SVG Version: 6.00 Build 0)  -->
<!DOCTYPE svg PUBLIC "-//W3C//DTD SVG 1.1//EN" "http://www.w3.org/Graphics/SVG/1.1/DTD/svg11.dtd">
<svg version="1.1" id="Layer_1" xmlns="http://www.w3.org/2000/svg" xmlns:xlink="http://www.w3.org/1999/xlink" x="0px" y="0px"
	 width="94.551px" height="111.239px" viewBox="0 0 94.551 111.239" enable-background="new 0 0 94.551 111.239"
	 xml:space="preserve">
<g>
	<defs>
		<rect id="SVGID_1_" width="94.55" height="111.239"/>
	</defs>
	<clipPath id="SVGID_2_">
		<use xlink:href="#SVGID_1_"  overflow="visible"/>
	</clipPath>
</g>
<rect x="37.836" y="100.536" fill="#FFFFFF" width="1.978" height="10.555"/>
<polygon fill="#FFFFFF" points="8.119,100.536 5.403,107.74 2.628,100.536 0,100.536 0,111.091 1.771,111.091 1.771,103.119 
	4.975,111.091 5.61,111.091 8.754,103.119 8.754,111.091 10.717,111.091 10.717,100.536 "/>
<path fill="#FFFFFF" d="M14.397,107.076v-6.539h1.978v6.392c0,1.935,0.62,2.731,2.185,2.731c1.52,0,2.288-0.679,2.288-2.865v-6.258
	h1.978v6.421c0,2.761-1.491,4.281-4.281,4.281C15.903,111.239,14.397,109.792,14.397,107.076"/>
<polygon fill="#FFFFFF" points="71.822,102.085 68.885,102.085 68.885,100.536 76.738,100.536 76.738,102.085 73.801,102.085 
	73.801,111.091 71.822,111.091 "/>
<polygon fill="#FFFFFF" points="44.228,100.537 46.855,100.537 49.631,107.74 52.348,100.537 54.945,100.537 54.945,111.091 
	52.981,111.091 52.981,103.12 49.837,111.091 49.202,111.091 46,103.12 46,111.091 44.228,111.091 "/>
<path fill="#FFFFFF" d="M25.998,107.814h1.89c0.132,1.063,0.56,1.949,2.346,1.949c1.167,0,1.993-0.65,1.993-1.624
	c0-0.976-0.487-1.345-2.199-1.624c-2.525-0.34-3.72-1.108-3.72-3.086c0-1.728,1.476-3.026,3.676-3.026
	c2.273,0,3.631,1.034,3.838,3.056h-1.801c-0.192-1.106-0.827-1.579-2.037-1.579c-1.196,0-1.816,0.575-1.816,1.388
	c0,0.855,0.354,1.284,2.185,1.55c2.48,0.34,3.764,1.048,3.764,3.159c0,1.831-1.55,3.263-3.883,3.263
	C27.355,111.239,26.145,109.807,25.998,107.814"/>
<path fill="#FFFFFF" d="M61.483,100.537h2.569l3.483,10.555h-2.038l-0.841-2.613h-4.029l-0.827,2.613h-1.846L61.483,100.537z
	 M61.086,107.046h3.113l-1.549-4.901L61.086,107.046z"/>
<rect x="80.034" y="100.536" fill="#FFFFFF" width="1.978" height="10.555"/>
<polygon fill="#FFFFFF" points="88.734,105.673 85.575,100.536 87.789,100.536 90.033,104.285 92.263,100.536 94.284,100.536 
	91.17,105.629 94.551,111.091 92.307,111.091 89.826,106.973 87.347,111.091 85.339,111.091 "/>
<g>
	<defs>
		<path id="SVGID_3_" d="M7.165,38.479c0,7.955,2.429,15.342,6.581,21.465L7.165,76.786l16.095-7.103
			c6.265,4.469,13.93,7.103,22.213,7.103c21.156,0,38.306-17.15,38.306-38.307c0-21.157-17.15-38.308-38.306-38.308
			C24.315,0.171,7.165,17.322,7.165,38.479"/>
	</defs>
	<clipPath id="SVGID_4_">
		<use xlink:href="#SVGID_3_"  overflow="visible"/>
	</clipPath>
	
		<linearGradient id="SVGID_5_" gradientUnits="userSpaceOnUse" x1="0" y1="111.2388" x2="1" y2="111.2388" gradientTransform="matrix(63.3474 -63.3474 -63.3474 -63.3474 7055.4409 7121.8594)">
		<stop  offset="0" style="stop-color:#C900FF"/>
		<stop  offset="1" style="stop-color:#00BFFF"/>
	</linearGradient>
	<polygon clip-path="url(#SVGID_4_)" fill="url(#SVGID_5_)" points="-31.143,38.479 45.472,-38.136 122.087,38.478 45.472,115.092 	
		"/>
</g>
<g>
	<defs>
		<polygon id="SVGID_6_" points="68.342,7.102 77.855,16.841 84.437,0 		"/>
	</defs>
	<clipPath id="SVGID_7_">
		<use xlink:href="#SVGID_6_"  overflow="visible"/>
	</clipPath>
	
		<linearGradient id="SVGID_8_" gradientUnits="userSpaceOnUse" x1="0" y1="111.2407" x2="1" y2="111.2407" gradientTransform="matrix(56.7294 -56.7294 -56.7294 -56.7294 6339.4907 6366.6201)">
		<stop  offset="0" style="stop-color:#FFD500"/>
		<stop  offset="1" style="stop-color:#FF0800"/>
	</linearGradient>
	<polygon clip-path="url(#SVGID_7_)" fill="url(#SVGID_8_)" points="59.922,8.42 76.39,-8.048 92.857,8.42 76.39,24.888 	"/>
</g>
<g>
	<defs>
		<path id="SVGID_9_" d="M22.958,38.978c0,12.797,10.374,23.171,23.172,23.171c12.797,0,23.171-10.374,23.171-23.171
			c0-12.797-10.374-23.171-23.171-23.171C33.332,15.807,22.958,26.181,22.958,38.978"/>
	</defs>
	<clipPath id="SVGID_10_">
		<use xlink:href="#SVGID_9_"  overflow="visible"/>
	</clipPath>
	
		<linearGradient id="SVGID_11_" gradientUnits="userSpaceOnUse" x1="0" y1="111.2388" x2="1" y2="111.2388" gradientTransform="matrix(56.7294 -56.7294 -56.7294 -56.7294 6339.5103 6366.6201)">
		<stop  offset="0" style="stop-color:#FFD500"/>
		<stop  offset="1" style="stop-color:#FF0800"/>
	</linearGradient>
	<polygon clip-path="url(#SVGID_10_)" fill="url(#SVGID_11_)" points="-0.213,38.978 46.129,-7.365 92.472,38.978 46.129,85.32 	"/>
</g>
<g>
	<defs>
		<polygon id="SVGID_12_" points="55.346,39.807 68.362,45.516 77.855,16.841 76.013,8.14 68.342,7.102 		"/>
	</defs>
	<clipPath id="SVGID_13_">
		<use xlink:href="#SVGID_12_"  overflow="visible"/>
	</clipPath>
	
		<linearGradient id="SVGID_14_" gradientUnits="userSpaceOnUse" x1="0" y1="111.2544" x2="1" y2="111.2544" gradientTransform="matrix(56.7294 -56.7294 -56.7294 -56.7294 6344.2866 6371.3701)">
		<stop  offset="0" style="stop-color:#FFD500"/>
		<stop  offset="1" style="stop-color:#FF0800"/>
	</linearGradient>
	<polygon clip-path="url(#SVGID_13_)" fill="url(#SVGID_14_)" points="36.139,26.309 66.601,-4.153 97.062,26.309 66.601,56.77 	"/>
</g>
</svg>
