<?xml version="1.0" encoding="utf-8"?>
<!-- Generator: Adobe Illustrator 16.0.0, SVG Export Plug-In . SVG Version: 6.00 Build 0)  -->
<!DOCTYPE svg PUBLIC "-//W3C//DTD SVG 1.1//EN" "http://www.w3.org/Graphics/SVG/1.1/DTD/svg11.dtd">
<svg version="1.1" id="Layer_1" xmlns="http://www.w3.org/2000/svg" xmlns:xlink="http://www.w3.org/1999/xlink" x="0px" y="0px"
	 width="56.691px" height="56.691px" viewBox="0 0 56.691 56.691" enable-background="new 0 0 56.691 56.691" xml:space="preserve">
<g>
	<path d="M8.193,8.193c-10.924,10.924-10.924,29.381,0,40.305c10.924,10.925,29.381,10.925,40.305,0
		c10.925-10.924,10.925-29.381,0-40.305C37.574-2.731,19.117-2.731,8.193,8.193 M41.106,19.12l-9.226,9.226l9.226,9.226
		c0.977,0.977,0.977,2.559,0,3.535s-2.559,0.977-3.535,0l-9.226-9.226l-9.226,9.226c-0.977,0.978-2.559,0.977-3.536,0
		c-0.976-0.977-0.977-2.559,0-3.535l9.226-9.226l-9.226-9.226c-0.977-0.977-0.976-2.559,0-3.536c0.977-0.976,2.559-0.977,3.536,0
		l9.226,9.226l9.226-9.226c0.977-0.976,2.559-0.976,3.535,0C42.083,16.561,42.083,18.144,41.106,19.12"/>
</g>
</svg>
