<?xml version="1.0" encoding="utf-8"?>
<!-- Generator: Adobe Illustrator 16.0.0, SVG Export Plug-In . SVG Version: 6.00 Build 0)  -->
<!DOCTYPE svg PUBLIC "-//W3C//DTD SVG 1.1//EN" "http://www.w3.org/Graphics/SVG/1.1/DTD/svg11.dtd">
<svg version="1.1" id="Layer_1" xmlns="http://www.w3.org/2000/svg" xmlns:xlink="http://www.w3.org/1999/xlink" x="0px" y="0px"
	 width="22px" height="5px" viewBox="0 0 22 5" enable-background="new 0 0 22 5" xml:space="preserve">
<g>
	<path d="M2.5,5C3.881,5,5,3.881,5,2.5S3.881,0,2.5,0S0,1.119,0,2.5S1.119,5,2.5,5 M11,5c1.381,0,2.5-1.119,2.5-2.5S12.381,0,11,0
		S8.5,1.119,8.5,2.5S9.619,5,11,5 M19.5,5C20.881,5,22,3.881,22,2.5S20.881,0,19.5,0S17,1.119,17,2.5S18.119,5,19.5,5"/>
</g>
</svg>
