<?xml version="1.0" encoding="utf-8"?>
<!-- Generator: Adobe Illustrator 16.0.0, SVG Export Plug-In . SVG Version: 6.00 Build 0)  -->
<!DOCTYPE svg PUBLIC "-//W3C//DTD SVG 1.1//EN" "http://www.w3.org/Graphics/SVG/1.1/DTD/svg11.dtd">
<svg version="1.1" id="Layer_1" xmlns="http://www.w3.org/2000/svg" xmlns:xlink="http://www.w3.org/1999/xlink" x="0px" y="0px"
	 width="71.133px" height="71.133px" viewBox="0 0 71.133 71.133" enable-background="new 0 0 71.133 71.133" xml:space="preserve">
<g>
	<path fill="#010101" d="M35.566,0C15.925,0,0,15.925,0,35.566c0,19.641,15.925,35.566,35.566,35.566
		c19.641,0,35.566-15.922,35.566-35.566C71.133,15.925,55.207,0,35.566,0 M4.688,35.566c0-17.023,13.855-30.879,30.879-30.879
		c0.414,0,0.82,0.047,1.23,0.063c8.027,0.629,14.359,7.332,14.359,15.523c0,8.606-6.715,15.035-15.59,15.59
		c-8.59,0.539-15.594,6.984-15.594,15.594c0,6.484,3.973,12.046,9.613,14.395C15.415,63.059,4.688,50.543,4.688,35.566"/>
</g>
</svg>
