<?xml version="1.0" encoding="utf-8"?>
<!-- Generator: Adobe Illustrator 16.0.0, SVG Export Plug-In . SVG Version: 6.00 Build 0)  -->
<!DOCTYPE svg PUBLIC "-//W3C//DTD SVG 1.1//EN" "http://www.w3.org/Graphics/SVG/1.1/DTD/svg11.dtd">
<svg version="1.1" id="Layer_1" xmlns="http://www.w3.org/2000/svg" xmlns:xlink="http://www.w3.org/1999/xlink" x="0px" y="0px"
	 width="66.148px" height="68.852px" viewBox="0 -11.352 66.148 68.852" enable-background="new 0 -11.352 66.148 68.852"
	 xml:space="preserve">
<path d="M10.723,46.773c0,3.074,2.551,5.625,5.625,5.625s5.625-2.551,5.625-5.625s-2.551-5.625-5.625-5.625
	S10.723,43.699,10.723,46.773z M66.149,49.625H26.625c-1.277,4.574-5.477,7.875-10.277,7.875s-9.074-3.301-10.273-7.875H0V44h6.074
	c1.273-4.574,5.477-7.875,10.273-7.875c4.801,0,9.074,3.301,10.273,7.875h39.523v5.625H66.149z"/>
<path d="M45.676,23.074c0,3.074,2.552,5.625,5.625,5.625c3.074,0,5.625-2.551,5.625-5.625s-2.551-5.625-5.625-5.625
	C48.228,17.449,45.676,20,45.676,23.074z M66.149,25.926h-4.574c-1.273,4.574-5.477,7.875-10.273,7.875
	c-4.801,0-9.073-3.301-10.272-7.875H0v-5.625h41.023c1.272-4.573,5.477-7.875,10.272-7.875c4.802,0,9.074,3.302,10.273,7.875h4.574
	v5.625H66.149z"/>
<path d="M19.723-0.625C19.723,2.449,22.274,5,25.348,5s5.625-2.551,5.625-5.625S28.422-6.25,25.348-6.25S19.723-3.699,19.723-0.625z
	 M66.149,2.148H35.774C34.5,6.722,30.297,10.023,25.5,10.023c-4.801,0-9.074-3.301-10.273-7.875H0v-5.625h15.227
	c1.273-4.574,5.477-7.875,10.273-7.875c4.801,0,9.074,3.301,10.273,7.875h30.375V2.148z"/>
</svg>
