<?xml version="1.0" encoding="utf-8"?>
<!-- Generator: Adobe Illustrator 16.0.0, SVG Export Plug-In . SVG Version: 6.00 Build 0)  -->
<!DOCTYPE svg PUBLIC "-//W3C//DTD SVG 1.1//EN" "http://www.w3.org/Graphics/SVG/1.1/DTD/svg11.dtd">
<svg version="1.1" id="Layer_1" xmlns="http://www.w3.org/2000/svg" xmlns:xlink="http://www.w3.org/1999/xlink" x="0px" y="0px"
	 width="82.75px" height="81.235px" viewBox="0 0 82.75 81.235" enable-background="new 0 0 82.75 81.235" xml:space="preserve">
<g>
	<path d="M55.769,34.993c-1.464-0.425-2.898-0.64-4.265-0.64c-5.074,0-8.302,2.869-10.129,5.311
		c-1.827-2.441-5.055-5.311-10.128-5.311c-1.366,0-2.802,0.215-4.265,0.64c-3.72,1.08-6.535,3.641-8.143,7.407
		c-2.221,5.203-1.75,11.979,1.23,17.687c4.904,9.386,19.493,20.293,20.111,20.754c0.354,0.263,0.773,0.395,1.193,0.395
		s0.839-0.132,1.193-0.395c0.617-0.461,15.207-11.368,20.11-20.755c2.98-5.704,3.451-12.481,1.23-17.687
		C62.303,38.634,59.488,36.073,55.769,34.993"/>
	<path d="M75.75,34.924c-1.074,0-2.09,0.25-3,0.685v-4.234C72.75,14.075,58.676,0,41.375,0S10,14.075,10,31.375v4.234
		c-0.91-0.435-1.926-0.685-3-0.685c-3.86,0-7,3.14-7,7v16.211c0,3.859,3.14,7,7,7c3.859,0,7-3.141,7-7v-26.76
		C14,16.28,26.28,4,41.375,4C56.47,4,68.75,16.28,68.75,31.375v26.76c0,3.859,3.141,7,7,7s7-3.141,7-7V41.924
		C82.75,38.064,79.609,34.924,75.75,34.924"/>
</g>
</svg>
