<?xml version="1.0" encoding="utf-8"?>
<!-- Generator: Adobe Illustrator 16.0.0, SVG Export Plug-In . SVG Version: 6.00 Build 0)  -->
<!DOCTYPE svg PUBLIC "-//W3C//DTD SVG 1.1//EN" "http://www.w3.org/Graphics/SVG/1.1/DTD/svg11.dtd">
<svg version="1.1" id="Layer_1" xmlns="http://www.w3.org/2000/svg" xmlns:xlink="http://www.w3.org/1999/xlink" x="0px" y="0px"
	 width="80px" height="62.847px" viewBox="0 0 80 62.847" enable-background="new 0 0 80 62.847" xml:space="preserve">
<g>
	<path d="M1.014,0h9.523h41.758c1.353,0,1.353,2.095,0,2.095h-9.522H1.014C-0.338,2.095-0.338,0,1.014,0 M1.014,12.896h41.758h9.522
		c1.353,0,1.353-2.096,0-2.096H10.537H1.014C-0.338,10.8-0.338,12.896,1.014,12.896 M1.014,23.41h41.758h9.522
		c1.353,0,1.353-2.095,0-2.095H10.537H1.014C-0.338,21.315-0.338,23.41,1.014,23.41 M1.014,34.403h41.758h9.522
		c1.353,0,1.353-2.095,0-2.095H10.537H1.014C-0.338,32.308-0.338,34.403,1.014,34.403 M31.078,43.301H1.014
		c-1.352,0-1.352,2.095,0,2.095h30.064C32.429,45.397,32.429,43.301,31.078,43.301 M62.581,13.59
		c-2.555,10.33-5.075,20.523-7.649,30.932c-0.354-0.36-0.572-0.582-0.794-0.801c-2.633-2.619-5.823-3.772-9.476-3.234
		c-5.611,0.828-9.336,5.002-9.733,10.662c-0.459,6.554,4.245,12.266,12.188,11.653c3.606-0.278,6.117-2.438,7.565-5.66
		c0.794-1.764,1.278-3.686,1.753-5.572c1.989-7.89,3.921-15.794,5.876-23.693c0.397-1.606,0.813-3.207,1.229-4.845
		c1.238,0.305,2.354,0.577,3.47,0.854c3.39,0.842,10.833,2.668,10.833,2.668s1.48-5.882,2.156-8.663
		C80,17.891,79.352,17.731,62.581,13.59"/>
</g>
</svg>
