<?xml version="1.0" encoding="utf-8"?>
<!-- Generator: Adobe Illustrator 16.0.0, SVG Export Plug-In . SVG Version: 6.00 Build 0)  -->
<!DOCTYPE svg PUBLIC "-//W3C//DTD SVG 1.1//EN" "http://www.w3.org/Graphics/SVG/1.1/DTD/svg11.dtd">
<svg version="1.1" id="Layer_1" xmlns="http://www.w3.org/2000/svg" xmlns:xlink="http://www.w3.org/1999/xlink" x="0px" y="0px"
	 width="53.575px" height="53.363px" viewBox="0 0 53.575 53.363" enable-background="new 0 0 53.575 53.363" xml:space="preserve">
<g>
	<path d="M51,9.763l-7-7.2c-3.4-3.4-9.4-3.4-12.4-0.1l-30.3,30.2c-0.1,0.101-0.3,0.3-0.4,0.4c-0.1,0.1-0.1,0.2-0.2,0.2
		c0,0.1-0.1,0.1-0.1,0.199c0,0.101-0.1,0.2-0.1,0.301c0,0.1-0.1,0.199-0.1,0.199v0.2v0.2L0,50.563c0,0.8,0.3,1.5,0.8,2
		s1.2,0.8,2,0.8h0.1l16.3-0.4h0.2h0.3c0.1,0,0.2-0.1,0.3-0.1s0.2,0,0.2-0.1c0.1,0,0.2-0.101,0.3-0.101s0.1-0.1,0.2-0.1
		c0.1-0.101,0.3-0.2,0.4-0.3l26.2-26.2l3.9-3.9C54.4,18.763,54.4,13.163,51,9.763 M18.8,46.563l-11.9-11.9l22.3-22.3l11.899,11.9
		L18.8,46.563z M5.6,41.163l6.7,6.7l-6.9,0.2L5.6,41.163z M47,18.363l-2,2l-11.8-12l1.899-1.9c1.301-1.3,3.4-1.3,4.7,0l7.2,7.2
		C48.3,14.963,48.3,17.063,47,18.363"/>
</g>
</svg>
