<?xml version="1.0" encoding="utf-8"?>
<!-- Generator: Adobe Illustrator 16.0.0, SVG Export Plug-In . SVG Version: 6.00 Build 0)  -->
<!DOCTYPE svg PUBLIC "-//W3C//DTD SVG 1.1//EN" "http://www.w3.org/Graphics/SVG/1.1/DTD/svg11.dtd">
<svg version="1.1" id="Layer_1" xmlns="http://www.w3.org/2000/svg" xmlns:xlink="http://www.w3.org/1999/xlink" x="0px" y="0px"
	 width="47px" height="36px" viewBox="0 0 47 36" enable-background="new 0 0 47 36" xml:space="preserve">
<g>
	<path d="M41.992,0H5.008C2.235,0,0,2.241,0,5.006V35c0,0.545,0.449,1,1.003,1h44.994C46.55,36,47,35.552,47,35V5.006
		C47,2.238,44.758,0,41.992,0 M42.358,4.977c0.552,0,1,0.448,1,1c0,0.552-0.448,1-1,1c-0.553,0-1-0.448-1-1
		C41.358,5.425,41.806,4.977,42.358,4.977 M34.358,4.977c0.552,0,1,0.448,1,1c0,0.552-0.448,1-1,1c-0.553,0-1-0.448-1-1
		C33.358,5.425,33.806,4.977,34.358,4.977 M9.358,4.986c0-0.557,0.443-1.009,1.009-1.009h1.982c0.557,0,1.009,0.443,1.009,1.009
		v1.982c0,0.557-0.444,1.009-1.009,1.009h-1.982c-0.557,0-1.009-0.443-1.009-1.009V4.986z M3.358,4.986
		c0-0.557,0.443-1.009,1.009-1.009h1.982c0.557,0,1.009,0.443,1.009,1.009v1.982c0,0.557-0.444,1.009-1.009,1.009H4.367
		c-0.557,0-1.009-0.443-1.009-1.009V4.986z M8,35H3V12h4h0.5H7v14h1V35z M14,35H9v-9h1V12H9.5H10h3h0.5H13v14h1V35z M20,35h-5v-9h1
		V12h-0.5H16h4V35z M26,35h-5V12h4h0.5H25v14h1V35z M32,35h-5v-9h1V12h-0.5H28h3h0.5H31v14h1V35z M38,35h-5v-9h1V12h-0.5H34h3h0.5
		H37v14h1V35z M37.358,5.977c0-0.552,0.447-1,1-1c0.552,0,1,0.448,1,1c0,0.552-0.448,1-1,1C37.806,6.977,37.358,6.529,37.358,5.977
		 M44,35h-5v-9h1V12h-0.5H40h4V35z"/>
</g>
</svg>
