<?xml version="1.0" encoding="utf-8"?>
<!-- Generator: Adobe Illustrator 16.0.0, SVG Export Plug-In . SVG Version: 6.00 Build 0)  -->
<!DOCTYPE svg PUBLIC "-//W3C//DTD SVG 1.1//EN" "http://www.w3.org/Graphics/SVG/1.1/DTD/svg11.dtd">
<svg version="1.1" id="Layer_1" xmlns="http://www.w3.org/2000/svg" xmlns:xlink="http://www.w3.org/1999/xlink" x="0px" y="0px"
	 width="76px" height="76px" viewBox="0 0 76 76" enable-background="new 0 0 76 76" xml:space="preserve">
<g>
	<path d="M76,39.5v-6c0-2.961-0.359-3.5-3.5-3.5H46V3.5C46,0.539,45.52,0,42.5,0h-6C33.4,0,32,0.539,32,3.5V30H4.5
		C1.539,30,0,30.48,0,33.5v6C0,42.6,1.539,44,4.5,44H32v27.5c0,3.02,1.461,4.5,4.5,4.5h6c2.961,0,3.5-1.359,3.5-4.5V44h26.5
		C75.52,44,76,42.539,76,39.5"/>
</g>
</svg>
