<?xml version="1.0" encoding="utf-8"?>
<!-- Generator: Adobe Illustrator 16.0.0, SVG Export Plug-In . SVG Version: 6.00 Build 0)  -->
<!DOCTYPE svg PUBLIC "-//W3C//DTD SVG 1.1//EN" "http://www.w3.org/Graphics/SVG/1.1/DTD/svg11.dtd">
<svg version="1.1" id="Layer_1" xmlns="http://www.w3.org/2000/svg" xmlns:xlink="http://www.w3.org/1999/xlink" x="0px" y="0px"
	 width="57px" height="57px" viewBox="0 0 57 57" enable-background="new 0 0 57 57" xml:space="preserve">
<g>
	<path d="M28.5,0C13.051,0,0,13.051,0,28.5S13.051,57,28.5,57S57,43.949,57,28.5S43.949,0,28.5,0 M44.047,31H31v13.047
		c0,1.381-1.119,2.5-2.5,2.5s-2.5-1.119-2.5-2.5V31H12.953c-1.381,0-2.5-1.119-2.5-2.5s1.119-2.5,2.5-2.5H26V12.953
		c0-1.381,1.119-2.5,2.5-2.5s2.5,1.119,2.5,2.5V26h13.047c1.381,0,2.5,1.119,2.5,2.5S45.428,31,44.047,31"/>
</g>
</svg>
