<?xml version="1.0" encoding="utf-8"?>
<!-- Generator: Adobe Illustrator 16.0.0, SVG Export Plug-In . SVG Version: 6.00 Build 0)  -->
<!DOCTYPE svg PUBLIC "-//W3C//DTD SVG 1.1//EN" "http://www.w3.org/Graphics/SVG/1.1/DTD/svg11.dtd">
<svg version="1.1" id="Layer_1" xmlns="http://www.w3.org/2000/svg" xmlns:xlink="http://www.w3.org/1999/xlink" x="0px" y="0px"
	 width="75.93px" height="75.93px" viewBox="0 0 75.93 75.93" enable-background="new 0 0 75.93 75.93" xml:space="preserve">
<g>
	<path fill="#FFFFFF" d="M37.97,0C17,0,0,17,0,37.97c0,20.96,17,37.96,37.97,37.96c20.96,0,37.96-17,37.96-37.96
		C75.93,17,58.93,0,37.97,0 M56.44,54.02c0,1.12-0.551,2.312-1.66,2.312h-9.34v-14h4.75l0.72-6h-5.47V32.75
		c0-1.6,0.43-2.419,2.729-2.419h3.271V25.1c-1-0.07-2.551-0.22-4.58-0.22c-4.221,0-7.42,2.58-7.42,7.32v4.131h-5v6h5v14H22.12
		c-1.12,0-1.68-1.191-1.68-2.312V21.36c0-1.12,0.56-2.029,1.68-2.029h32.66c1.109,0,1.66,0.909,1.66,2.029V54.02z"/>
</g>
</svg>
