<?xml version="1.0" encoding="utf-8"?>
<!-- Generator: Adobe Illustrator 16.0.0, SVG Export Plug-In . SVG Version: 6.00 Build 0)  -->
<!DOCTYPE svg PUBLIC "-//W3C//DTD SVG 1.1//EN" "http://www.w3.org/Graphics/SVG/1.1/DTD/svg11.dtd">
<svg version="1.1" id="Layer_1" xmlns="http://www.w3.org/2000/svg" xmlns:xlink="http://www.w3.org/1999/xlink" x="0px" y="0px"
	 width="75.93px" height="75.93px" viewBox="0 0 75.93 75.93" enable-background="new 0 0 75.93 75.93" xml:space="preserve">
<g>
	<path fill="#FFFFFF" d="M37.97,0C17,0,0,17,0,37.97c0,20.96,17,37.96,37.97,37.96c20.96,0,37.96-17,37.96-37.96
		C75.93,17,58.93,0,37.97,0 M52.4,29.92c0.01,0.34,0.02,0.68,0.02,1.02c0,10.41-7.729,22.42-21.86,22.42
		c-4.34,0-8.38-1.31-11.78-3.54c0.6,0.07,1.21,0.11,1.83,0.11c3.6,0,6.92-1.26,9.55-3.37c-3.37-0.07-6.2-2.34-7.18-5.47
		c0.47,0.09,0.95,0.14,1.44,0.14c0.71,0,1.47-0.1,2.11-0.28c-3.52-0.72-6.09-3.91-6.09-7.729v-0.09c1,0.58,2.15,0.94,3.41,0.98
		c-2.07-1.41-3.46-3.83-3.46-6.56c0-1.44,0.36-2.8,1.02-3.96c3.79,4.77,9.44,7.9,15.83,8.23c-0.141-0.58-0.205-1.18-0.205-1.79
		c0-4.35,3.438-7.88,7.678-7.88c2.209,0,4.208,0.95,5.608,2.48c1.75-0.35,3.39-1,4.88-1.91c-0.57,1.84-1.791,3.39-3.381,4.36
		c1.56-0.19,3.04-0.61,4.41-1.24C55.21,27.42,53.9,28.81,52.4,29.92"/>
</g>
</svg>
