<?xml version="1.0" encoding="utf-8"?>
<!-- Generator: Adobe Illustrator 16.0.0, SVG Export Plug-In . SVG Version: 6.00 Build 0)  -->
<!DOCTYPE svg PUBLIC "-//W3C//DTD SVG 1.1//EN" "http://www.w3.org/Graphics/SVG/1.1/DTD/svg11.dtd">
<svg version="1.1" id="Layer_1" xmlns="http://www.w3.org/2000/svg" xmlns:xlink="http://www.w3.org/1999/xlink" x="0px" y="0px"
	 width="75.93px" height="75.93px" viewBox="0 0 75.93 75.93" enable-background="new 0 0 75.93 75.93" xml:space="preserve">
<g>
	<path fill="#FFFFFF" d="M37.97,0C17,0,0,17,0,37.97c0,20.96,17,37.96,37.97,37.96c20.96,0,37.96-17,37.96-37.96
		C75.93,17,58.93,0,37.97,0 M48.84,44.161c-4.99,6.399-9.21,9.6-12.66,9.6c-2.13,0-3.94-1.94-5.42-5.85
		c-0.99-3.58-1.97-7.16-2.96-10.73c-1.1-3.91-2.27-5.86-3.53-5.86c-0.28,0-1.23,0.57-2.88,1.71l-1.72-2.2
		c1.8-1.57,3.58-3.14,5.34-4.71c2.41-2.06,4.21-3.14,5.42-3.26c2.85-0.27,4.6,1.66,5.26,5.77c0.71,4.45,1.2,7.22,1.48,8.3
		c0.82,3.69,1.72,5.53,2.71,5.53c0.76,0,1.91-1.19,3.45-3.58c1.53-2.38,2.35-4.2,2.46-5.45c0.22-2.06-0.6-3.08-2.46-3.08
		c-0.88,0-1.78,0.18-2.71,0.57c1.81-5.81,5.26-8.63,10.35-8.46c3.771,0.1,5.561,2.52,5.34,7.23
		C56.15,33.22,53.65,38.04,48.84,44.161"/>
</g>
</svg>
