<?xml version="1.0" encoding="utf-8"?>
<!-- Generator: Adobe Illustrator 16.0.0, SVG Export Plug-In . SVG Version: 6.00 Build 0)  -->
<!DOCTYPE svg PUBLIC "-//W3C//DTD SVG 1.1//EN" "http://www.w3.org/Graphics/SVG/1.1/DTD/svg11.dtd">
<svg version="1.1" id="Layer_1" xmlns="http://www.w3.org/2000/svg" xmlns:xlink="http://www.w3.org/1999/xlink" x="0px" y="0px"
	 width="34.915px" height="34.654px" viewBox="0 0 34.915 34.654" enable-background="new 0 0 34.915 34.654" xml:space="preserve">
<path d="M23.84,14.297c0-5.274-4.271-9.547-9.547-9.547c-5.274,0-9.559,4.269-9.559,9.547c0,5.273,4.285,9.558,9.559,9.558
	C19.566,23.855,23.84,19.574,23.84,14.297z M30.328,34.477l-8.199-8.199c-2.246,1.473-4.934,2.332-7.832,2.332
	C6.394,28.609,0,22.203,0,14.297C0,6.406,6.39,0,14.297,0c7.89,0,14.296,6.406,14.296,14.297c0,2.757-0.777,5.332-2.121,7.507
	l8.258,8.258c0.438,0.426,0.07,1.484-0.809,2.359l-1.23,1.234C31.812,34.535,30.753,34.902,30.328,34.477z"/>
</svg>
